<svg width="69" height="61" viewBox="0 0 69 61" fill="none" xmlns="http://www.w3.org/2000/svg">
<path fill-rule="evenodd" clip-rule="evenodd" d="M48.198 26.9514C48.822 28.2855 49.446 29.6197 50.0927 31.0129C49.9293 31.1468 49.7638 31.2851 49.5958 31.4254L49.5951 31.4261L49.595 31.4261C49.215 31.7436 48.8225 32.0716 48.4136 32.3825C47.9593 32.7261 47.5088 33.0745 47.0585 33.4227L47.0578 33.4233L47.0578 33.4233C45.9452 34.2838 44.8341 35.1431 43.6713 35.9246C39.4849 38.7465 34.8675 39.8918 29.8983 39.4431C28.6843 39.3368 27.4023 38.9 26.8918 38.534C27.1866 36.41 27.4701 34.3449 27.7535 32.2799L27.754 32.2763C27.72 32.2645 27.6831 32.2556 27.6463 32.2468C27.6094 32.2379 27.5725 32.2291 27.5385 32.2173C27.428 32.4505 27.3185 32.6838 27.2091 32.9169L27.2087 32.9176C26.9362 33.4981 26.6645 34.0768 26.3813 34.6495C25.6455 36.1624 25.1522 37.769 24.6578 39.3792C24.5194 39.8298 24.3809 40.2808 24.237 40.73C23.3294 43.5283 21.7071 45.6772 18.9502 46.728C18.8141 46.787 18.7006 47.0231 18.6439 47.2002C18.5327 47.5673 18.4339 47.9387 18.3352 48.3098L18.3352 48.3101C18.2021 48.8102 18.0692 49.3098 17.9064 49.7978C17.2825 51.6869 16.1139 53.1509 14.5369 54.2726C13.8335 54.7685 13.1301 55.2762 12.4608 55.8193C11.8822 56.2798 11.9049 56.4805 12.4721 56.941C12.5831 57.0311 12.6947 57.1199 12.806 57.2084L12.806 57.2085L12.8061 57.2085C13.1614 57.4912 13.5139 57.7716 13.8335 58.0862C14.3554 58.6057 14.5937 59.2669 14.4008 60.0226C14.3554 60.1997 14.0945 60.4358 13.9356 60.4358C10.2144 60.4594 6.48186 60.4594 2.76065 60.4476C2.62451 60.4476 2.43164 60.4004 2.35223 60.3059C2.23829 60.1616 2.12166 60.0178 2.00468 59.8736L2.00446 59.8733L2.00443 59.8733C1.58566 59.3571 1.16252 58.8354 0.843321 58.2633C0.639108 57.8973 0.616417 57.2834 0.752559 56.8701C2.0686 52.7023 3.75903 48.747 6.94701 45.7126C7.08316 45.5827 7.16257 45.2993 7.17392 45.0986C7.25333 42.0997 7.59369 39.1243 8.33113 36.2316C8.96645 33.7285 9.64716 31.2255 10.8497 28.9231C13.0621 24.7199 15.921 21.2132 20.3116 19.3241C24.0896 17.7065 27.7767 17.9545 31.3731 19.8672C31.8669 20.1321 32.3134 20.4954 32.7484 20.8492C32.9531 21.0157 33.1552 21.1801 33.3585 21.3313C32.9501 20.4103 32.2354 19.6547 31.4639 18.9581C32.1904 18.6705 32.9195 18.3921 33.6474 18.1143L33.6476 18.1142C36.8641 16.8863 40.0554 15.6681 42.8771 13.704C43.0014 14.1539 43.1234 14.6083 43.2461 15.0653L43.2462 15.0654C43.4036 15.6518 43.5622 16.2423 43.728 16.8328C43.7734 16.9745 43.8642 17.1044 43.9776 17.2225C43.7507 15.7584 43.7507 14.2943 44.2839 12.9483C44.7831 11.6732 45.3844 10.3862 46.1559 9.27639C48.0505 6.58441 50.3309 4.24664 52.8722 2.20404L52.8722 2.20402L52.8723 2.204C52.9744 2.12136 53.0764 2.03873 53.1899 1.95609C53.3721 1.83506 53.5526 1.7061 53.7336 1.57687C54.6116 0.949698 55.4986 0.316114 56.6275 0.551068C58.4881 0.92889 60.0424 1.94429 61.1088 3.60906C61.4151 4.08134 61.7668 4.41194 62.2547 4.58904C63.5253 5.04951 64.4783 5.84057 65.091 7.12753C65.313 7.59775 65.6333 8.01417 65.9542 8.43126C66.1086 8.63207 66.2632 8.83304 66.407 9.04025C66.702 9.4653 66.7587 9.81951 66.4297 10.3154C66.1574 10.7286 66.0213 11.2836 65.9418 11.7913C65.8397 12.3934 66.0666 12.783 66.6793 13.1136C68.2789 13.9637 69.2093 15.8647 68.3243 17.7892C68.1768 18.108 68.0407 18.4268 67.9159 18.7574C67.326 20.3395 66.2028 20.8944 64.6598 20.3395C64.6343 20.3306 64.6081 20.3218 64.5818 20.3129L64.5817 20.3129C64.5031 20.2863 64.4244 20.2598 64.3649 20.2332C64.0812 20.6465 63.7976 21.0479 63.4913 21.4729C63.4478 21.4176 63.4104 21.3772 63.3819 21.3464C63.3435 21.305 63.3211 21.2807 63.3211 21.2604C63.4119 20.245 62.8219 19.6429 62.1639 19.0289C59.0894 16.148 55.3228 16.6675 52.7474 18.3323C53.037 18.2712 53.3238 18.2045 53.6098 18.138L53.6099 18.138C54.1531 18.0117 54.6934 17.8861 55.2434 17.801C58.5108 17.3287 61.3471 18.8518 62.856 21.898C63.8997 23.9996 64.6371 26.1957 64.4556 28.6279L64.4536 28.6564V28.6565C64.4202 29.1328 64.3838 29.6517 64.1947 30.0684C63.5367 31.5325 63.7409 33.0083 64.1039 34.4606L64.1708 34.7312C64.5115 36.111 64.8612 37.5276 65.5107 38.7465C68.018 43.4338 68.2222 48.499 68.0407 53.635C67.9613 55.8429 67.2806 57.8029 65.5334 59.2315C64.5577 60.0344 63.514 60.5893 62.2093 60.483C61.608 60.4358 60.9954 60.424 60.3941 60.483C59.2595 60.6129 58.4767 60.0226 57.8074 59.1961C57.0813 58.3106 56.7523 57.2834 56.9565 56.1263C57.0132 55.8193 57.2288 55.4415 57.4784 55.2998C57.7919 55.1265 58.0208 55.367 58.2528 55.6107C58.2894 55.6492 58.3261 55.6878 58.3633 55.7248C58.7129 56.077 59.1748 56.3358 59.6149 56.5825L59.615 56.5825L59.6226 56.5868C60.0083 56.7993 60.2125 56.6222 60.2579 56.1735C60.3033 55.6422 60.1445 55.1935 59.7587 54.8511C57.5918 52.9266 56.2304 50.4117 55.0051 47.8024C54.0635 45.7834 53.4622 43.67 53.2466 41.4267C53.0878 39.7383 53.3714 38.0971 53.6777 36.4559C53.8252 35.7121 53.9727 34.9565 54.0181 34.189C54.1202 32.6659 53.6097 31.379 52.3503 30.5643C50.7961 29.5607 49.4119 28.3564 48.3001 26.8451C48.3115 26.8805 48.2547 26.9159 48.198 26.9514ZM51.5215 32.3137C52.1795 32.8686 52.4178 33.5062 52.2816 34.2973C52.1977 34.8087 52.1054 35.3187 52.013 35.8287L52.0129 35.8294L52.0129 35.8295C51.843 36.7675 51.6731 37.7058 51.5555 38.654C51.1698 41.8537 51.8845 44.8763 53.0758 47.7926C53.2913 48.3239 53.314 48.749 53.0871 49.2803C52.0547 51.7125 50.9315 54.0857 49.4794 56.2936C47.5961 59.1509 44.964 60.4732 41.6739 60.4732C41.4795 60.4732 41.2861 60.4764 41.0931 60.4796H41.093C40.6441 60.4871 40.1975 60.4945 39.7452 60.4614C39.5183 60.4496 39.2347 60.2961 39.1099 60.1072C38.0548 58.6196 38.2363 55.538 39.4502 54.1802C39.5864 54.0267 39.8927 53.885 40.0629 53.944C40.1922 53.9921 40.284 54.1968 40.3687 54.3859C40.388 54.429 40.407 54.4713 40.4259 54.5107C40.4727 54.6082 40.5068 54.7155 40.5406 54.8223C40.597 55.0002 40.6528 55.1764 40.7663 55.3018C40.9705 55.5498 41.3222 55.904 41.5491 55.8567C41.7873 55.8095 42.0256 55.3727 42.1277 55.0657C42.2298 54.7705 42.1958 54.4045 42.139 54.0975C42.0568 53.6652 41.9537 53.2361 41.8508 52.8078L41.8508 52.8077C41.6698 52.0545 41.4894 51.3038 41.4243 50.5436C41.118 47.1314 41.413 43.7783 42.8311 40.6258C43.1601 39.9056 43.5345 39.1735 44.0223 38.5596C44.5329 37.8984 45.1682 37.3199 45.8149 36.8004C46.4785 36.2577 47.1623 35.7446 47.847 35.2307L47.847 35.2307L47.8473 35.2304C48.3097 34.8834 48.7725 34.5361 49.2298 34.1792C49.7398 33.7751 50.2448 33.3604 50.7584 32.9387C51.0102 32.7319 51.264 32.5235 51.5215 32.3137ZM27.1378 40.7059C26.8464 40.6162 26.5537 40.5261 26.2556 40.4348C26.1545 40.6627 26.0566 40.8939 25.9583 41.1258C25.7917 41.5188 25.6242 41.9142 25.4387 42.3003C24.3155 44.6617 22.8407 46.7161 20.5603 48.0385C20.3788 48.1447 20.254 48.4163 20.1859 48.6406C19.6413 50.5415 18.9606 52.3598 17.7013 53.8947C17.6106 54.0128 17.5311 54.2253 17.5652 54.3552C17.9623 55.6658 18.3707 56.9763 18.8131 58.2633C18.8926 58.4876 19.1308 58.7001 19.3464 58.83C20.1519 59.3023 20.9574 59.7628 21.7856 60.1996C22.0579 60.3413 22.3755 60.4712 22.6705 60.4712C25.0695 60.4889 27.4621 60.4867 29.858 60.4845C30.6572 60.4837 31.4568 60.483 32.2572 60.483H32.9606C32.8843 60.3202 32.8221 60.1614 32.7632 60.0111C32.647 59.7145 32.5438 59.451 32.3706 59.2551C31.9395 58.771 31.4516 58.3105 30.9298 57.9445C30.4397 57.6014 29.9076 57.3165 29.3775 57.0327C29.2327 56.9552 29.088 56.8778 28.9444 56.7992C28.3771 56.4804 28.1275 56.0082 28.1729 55.347C28.1805 55.1895 28.1981 55.0321 28.2158 54.8747C28.2246 54.796 28.2334 54.7173 28.241 54.6385C28.2757 54.2811 28.3188 53.9225 28.3621 53.5635C28.4602 52.7486 28.5586 51.9315 28.5586 51.1201C28.5586 49.4317 27.8325 47.9794 26.8001 46.7043C28.5927 45.3111 28.9444 43.3393 29.1145 41.3085C28.4327 41.1046 27.7887 40.9063 27.1378 40.7059Z" fill="#20113D"/>
</svg>
