<svg width="37" height="61" viewBox="0 0 37 61" fill="none" xmlns="http://www.w3.org/2000/svg">
<path fill-rule="evenodd" clip-rule="evenodd" d="M18.0595 0.509589C19.0006 0.456908 19.8981 0.650073 20.8218 0.974941C20.7913 1.06204 20.763 1.14765 20.7352 1.23176L20.7352 1.23176C20.6677 1.43593 20.6032 1.63129 20.5168 1.81784C20.251 2.39295 19.9809 2.96805 19.7108 3.54315C19.4406 4.11826 19.1705 4.69336 18.9047 5.26847L18.904 5.2701C18.7609 5.58031 18.6912 5.73136 18.574 5.79504C18.4628 5.85548 18.3089 5.83723 18.0087 5.80165L17.9549 5.79528C17.6499 5.76016 17.4669 5.62846 17.4234 5.32993C17.4049 5.20421 17.3815 5.07786 17.3581 4.9514L17.3581 4.95136L17.3581 4.95133L17.358 4.9513L17.358 4.95127L17.358 4.95123L17.358 4.9512L17.358 4.95117L17.358 4.95113L17.358 4.9511L17.358 4.95107C17.2931 4.60071 17.2281 4.24938 17.2665 3.90753C17.3627 3.06287 17.5185 2.22366 17.6741 1.38561L17.6741 1.38556L17.6741 1.38548L17.6741 1.38539L17.6741 1.38531L17.6742 1.38522L17.6742 1.38513L17.6742 1.38506L17.6742 1.385L17.6742 1.38497L17.6742 1.38494L17.6742 1.3849C17.7159 1.16039 17.7576 0.935963 17.798 0.711534C17.8155 0.632512 17.9636 0.518369 18.0595 0.509589ZM12.1873 3.35521L12.1875 3.35546L12.1875 3.35551L12.1876 3.35561C12.7653 4.22139 13.3306 5.06853 13.9206 5.90076C14.1384 6.21685 14.4347 6.49781 14.914 6.30465C15.646 6.02368 15.8289 5.83052 15.6111 5.05786C15.3504 4.11869 15.5122 3.2156 15.6746 2.30935L15.6746 2.30933C15.6913 2.21583 15.7081 2.12229 15.7244 2.02868C15.7854 1.69503 15.7767 1.32626 15.6982 0.992616C15.6634 0.834572 15.3497 0.597506 15.2277 0.623847C13.8945 0.957495 12.7268 1.61601 11.6114 2.49403C11.8056 2.7832 11.9971 3.07022 12.1873 3.35521ZM8.76446 10.0505C9.37495 10.4996 9.98723 10.95 10.6104 11.4059C10.4012 12.4157 9.86096 12.9864 8.80658 13.1005C7.35135 13.2498 6.12269 12.6527 5.01602 11.7572C4.95503 11.7045 4.92888 11.5113 4.97245 11.4235C5.03643 11.2801 5.1001 11.1364 5.16381 10.9926L5.16442 10.9912L5.16522 10.9894L5.16546 10.9889L5.16616 10.9873L5.16618 10.9872L5.1662 10.9872L5.16621 10.9872L5.16623 10.9871L5.16625 10.9871L5.16627 10.9871L5.16628 10.987L5.1663 10.987L5.16632 10.987L5.16633 10.9869L5.16635 10.9869L5.16637 10.9869L5.16639 10.9868L5.1664 10.9868C5.44895 10.349 5.73217 9.70977 6.04426 9.08797C6.12807 8.91305 6.26533 8.76714 6.39673 8.62747L6.39676 8.62743C6.45663 8.56379 6.51528 8.50144 6.5671 8.43823C7.30652 8.97791 8.03304 9.5124 8.76211 10.0488L8.76363 10.0499L8.76393 10.0501L8.76446 10.0505ZM9.15411 15.4169C7.50718 15.0043 5.91253 14.6004 4.19589 14.1614C4.15916 14.3649 4.11813 14.575 4.07619 14.7897L4.07605 14.7904L4.07604 14.7904L4.07603 14.7905L4.07601 14.7906C3.99862 15.1867 3.91818 15.5985 3.85605 16.014C3.79642 16.4072 3.75706 16.8039 3.71694 17.2081L3.71693 17.2082L3.71692 17.2082L3.7169 17.2083L3.71689 17.2084L3.71688 17.2084L3.71687 17.2085L3.71686 17.2086L3.71685 17.2086L3.71684 17.2087L3.71682 17.2088L3.71681 17.2088V17.2088V17.2089V17.2089V17.209L3.71674 17.2096V17.2097C3.6924 17.4548 3.66778 17.7028 3.6382 17.9544C5.015 18.6481 6.42665 18.8412 7.82088 18.0335C8.81426 17.4715 9.20639 16.5408 9.15411 15.4169ZM3.69915 20.0716C3.43773 21.4589 3.64687 22.7671 4.13484 24.0403C4.17841 24.1456 4.29169 24.2598 4.39626 24.2949C6.45275 24.9885 8.77065 23.6013 9.09306 21.7311C9.13663 21.4764 9.15406 21.2043 9.13663 20.9496C9.03206 19.8345 8.82293 19.6765 7.74241 19.8345L7.4311 19.8801C6.6895 19.9889 5.94707 20.0978 5.19794 20.1594C4.86887 20.1835 4.53158 20.1497 4.18326 20.1147C4.02428 20.0988 3.863 20.0826 3.69915 20.0716ZM9.55496 28.3061C10.2521 26.8134 10.0342 25.7422 8.85785 24.8115C7.6379 25.7422 6.22625 26.0847 4.71003 26.1373C4.60546 26.1373 4.43118 26.2866 4.40504 26.4007C4.16977 27.5158 4.50089 28.508 5.11958 29.4211C5.16911 29.4932 5.26384 29.5303 5.37082 29.5722C5.43322 29.5966 5.49979 29.6226 5.56399 29.6582C5.53382 29.6785 5.50438 29.6987 5.47524 29.7188L5.47518 29.7188C5.40335 29.7683 5.33338 29.8164 5.259 29.8601C3.67307 30.8172 2.39212 32.0728 1.63401 33.7849C0.640625 36.0414 0.28336 38.3682 1.18089 40.7652C1.34243 41.1961 1.49102 41.6348 1.63937 42.0727L1.63942 42.0729L1.63947 42.073L1.63951 42.0732L1.63956 42.0733L1.6396 42.0734L1.63965 42.0736L1.63969 42.0737L1.63974 42.0738L1.63979 42.074L1.63983 42.0741L1.63988 42.0743L1.63992 42.0744L1.63997 42.0745L1.64001 42.0747L1.64006 42.0748L1.64011 42.0749L1.64015 42.0751C1.76362 42.4396 1.88692 42.8036 2.01743 43.1622C2.45312 44.3739 2.48798 45.6206 2.13942 46.8323C1.11118 50.3707 2.07843 53.6194 3.44651 56.8242C3.56656 57.0921 3.76256 57.3344 3.95147 57.568L3.96063 57.5793C4.22205 57.9042 4.56189 58.0095 4.97145 57.8691C5.381 57.7198 5.67727 57.4476 5.65984 57.0174C5.64241 56.4642 5.5727 55.9111 5.44199 55.3755C5.34178 54.9496 5.21979 54.5282 5.0978 54.1067C4.9758 53.6853 4.85381 53.2638 4.7536 52.838C4.47475 51.6351 4.83202 50.6429 5.80798 49.8966C5.84968 49.8658 5.89049 49.8341 5.93098 49.8026L5.9312 49.8025L5.93122 49.8024C6.01757 49.7354 6.10247 49.6694 6.19139 49.6156C7.66404 48.764 8.57029 47.4294 9.31968 45.9455C9.52896 45.5238 9.79977 45.131 10.0702 44.7388L10.0702 44.7387C10.1939 44.5593 10.3175 44.3801 10.4351 44.1982L10.5396 44.2509C10.5919 44.4968 10.6453 44.7426 10.6987 44.9884L10.6987 44.9885L10.6987 44.9885L10.6987 44.9886L10.6987 44.9887L10.6987 44.9887L10.6987 44.9888L10.6987 44.9888L10.6987 44.9889L10.6988 44.9889L10.6988 44.989L10.6988 44.9891L10.6988 44.9891L10.6988 44.9892L10.6988 44.9892L10.6988 44.9893L10.6988 44.9893L10.6988 44.9894C10.8589 45.7266 11.019 46.4639 11.1496 47.2011C11.7334 50.4059 13.6156 52.8204 15.7941 55.0682C16.009 55.2933 16.2916 55.4587 16.5585 55.6148L16.5697 55.6213C16.9356 55.8408 17.3103 55.8408 17.6589 55.5511C18.0162 55.2525 18.1469 54.875 17.99 54.4536C17.8332 54.0497 17.6328 53.6545 17.3888 53.2946C17.1357 52.9263 16.8625 52.5732 16.5895 52.2204C16.3548 51.9171 16.1202 51.614 15.8987 51.3014C14.8617 49.8439 14.8182 48.8166 15.8377 47.3591C16.6481 46.1914 17.2058 44.9182 17.7025 43.5397C17.8412 43.6047 17.9775 43.6649 18.1109 43.7239L18.111 43.7239L18.111 43.7239L18.1112 43.724L18.1112 43.724L18.1113 43.724L18.1113 43.724L18.1114 43.7241L18.1114 43.7241L18.1115 43.7241L18.1115 43.7241L18.1116 43.7241L18.1116 43.7242L18.1118 43.7242C18.3386 43.8244 18.5573 43.921 18.7656 44.0314C20.9092 45.208 22.225 47.0606 23.0092 49.3347C23.3278 50.2417 23.6022 51.1653 23.8764 52.0879L23.8765 52.0881L23.8767 52.0887C23.9475 52.3269 24.0183 52.5651 24.0898 52.8029C24.3425 53.6458 24.752 54.3921 25.3097 55.0594C25.5224 55.3122 25.7348 55.5651 25.9472 55.8179L25.9472 55.8179L25.9472 55.8179L25.9473 55.818L25.9473 55.818L25.9473 55.818C26.9442 57.0046 27.9393 58.1891 28.9521 59.3617C29.2397 59.6953 29.5882 60.0114 29.9629 60.2485C30.6426 60.6787 31.3049 60.547 31.9323 59.9412C32.3854 59.5022 32.4638 58.9578 32.0543 58.2642C31.8193 57.8647 31.5163 57.5026 31.2183 57.1464L31.2182 57.1463L31.2182 57.1463L31.2181 57.1462L31.2177 57.1457C31.1622 57.0794 31.1069 57.0133 31.0522 56.9471C30.8779 56.7364 30.6775 56.5345 30.4683 56.3589C28.6994 54.8399 28.2637 52.8292 28.3422 50.6254C28.3548 50.2553 28.3997 49.8853 28.4433 49.5253C28.4598 49.3899 28.476 49.256 28.4903 49.124C28.7629 49.0715 29.0323 49.019 29.2958 48.9677L29.2974 48.9674C29.7829 48.8728 30.2485 48.7821 30.6775 48.7025C30.84 49.0632 30.992 49.4319 31.1443 49.8012C31.474 50.6004 31.8049 51.4029 32.246 52.1356C32.8947 53.2156 33.6633 54.2208 34.4317 55.2258L34.4321 55.2263L34.4322 55.2265L34.4322 55.2265C34.6132 55.4632 34.7941 55.6998 34.9734 55.9374C35.2784 56.3413 35.688 56.6662 36.2457 56.5345C36.5419 56.4642 36.7685 55.6564 36.6204 55.0857C36.4809 54.5501 36.3154 54.0058 36.0453 53.5316C34.8427 51.398 34.3809 49.0537 34.0585 46.6743C33.8929 45.4626 33.1784 44.9182 31.9759 45.1553C29.7277 45.6031 27.4708 45.8226 25.179 45.6206C25.0222 45.6031 24.8654 45.568 24.7086 45.5329L24.7085 45.5328C23.0877 45.1465 22.4428 43.6363 23.2794 42.17C23.3055 42.1173 23.3317 42.0647 23.3752 42.0208C24.1543 41.2293 24.5765 40.2461 25.0005 39.2589C25.1504 38.91 25.3004 38.5606 25.4666 38.2189C25.7977 37.5516 26.4251 36.9897 27.0264 36.498C27.767 35.9009 28.6733 35.6024 29.6057 35.4005C29.7364 35.3741 29.9281 35.2512 29.9542 35.1458C29.9804 35.0229 29.8758 34.7946 29.7712 34.742C29.706 34.7109 29.6404 34.6791 29.5745 34.647L29.5738 34.6467L29.5706 34.6451L29.5705 34.6451C29.1709 34.4507 28.7586 34.2502 28.3334 34.1976C27.6363 34.1098 26.9131 34.1273 26.2072 34.1976C25.423 34.2766 24.7259 34.0308 24.0723 33.7147C23.3752 33.381 22.713 32.9244 22.0856 32.4679C20.3689 31.2123 18.6349 29.9919 16.6655 29.1577C14.5567 28.2534 12.3696 27.9548 10.1039 28.2885C9.93837 28.2709 9.75538 28.2797 9.55496 28.3061ZM19.1134 26.616C18.4162 27.055 17.6581 27.2482 16.839 27.2482C16.0548 27.2219 15.3054 27.0638 14.6693 26.5721C13.9634 26.0365 13.6933 25.2463 14.1029 24.4824C14.3643 24.0017 14.7286 23.5803 15.093 23.1588C15.2144 23.0184 15.3359 22.8779 15.4535 22.7352C15.5145 22.6649 15.6626 22.6386 15.7672 22.6474C17.6581 22.8318 19.1221 24.14 19.4619 25.7907C19.549 26.1946 19.4358 26.4141 19.1134 26.616ZM9.65036 4.03198C10.6437 4.78708 12.038 6.508 12.9878 8.13234L12.8898 8.2573C12.665 8.54372 12.4527 8.81423 12.2471 9.09817C12.0641 9.35279 11.8463 9.41426 11.5326 9.31767C9.92049 8.79964 8.81382 7.64065 7.64616 6.39386C8.32584 5.59486 8.9881 4.81342 9.65036 4.03198ZM23.2442 9.42381C23.9622 8.80061 24.8369 8.69169 25.7167 8.58212L25.7167 8.58211L25.7168 8.5821L25.7168 8.5821L25.7168 8.58209L25.7169 8.58209L25.7169 8.58208L25.717 8.58208L25.717 8.58207L25.7171 8.58206L25.7171 8.58206L25.7172 8.58205C25.9156 8.55734 26.1143 8.53259 26.3115 8.50189C26.7646 8.43165 27.2178 8.29995 27.6535 8.15946C27.7493 8.12434 27.8887 7.94874 27.8713 7.86094C27.7406 6.99169 27.4705 6.17513 26.7472 5.6132C26.6252 5.51662 26.4248 5.45516 26.2854 5.47272C25.2223 5.63954 24.2376 6.00831 23.3575 6.63171C23.2529 6.71073 23.1484 6.78975 23.0525 6.87755C22.1463 7.72045 22.2073 8.6775 23.2442 9.42381ZM23.5845 23.8298C22.7044 22.2494 18.8702 20.7392 17.8769 21.5909C17.8769 21.6172 17.8769 21.6611 17.8943 21.6699C19.0794 22.706 19.9333 24.0142 20.7612 25.34C20.9616 25.6649 21.162 25.6825 21.4757 25.5771C22.2077 25.3313 23.0442 24.6464 23.5845 23.8298ZM29.4393 40.8709C29.3086 41.547 29.0385 41.7489 28.3414 41.7665C28.2189 41.7435 28.0964 41.7252 27.9745 41.7071C27.7235 41.6696 27.4752 41.6326 27.2347 41.5557C26.4504 41.3187 26.1106 40.7655 26.2587 39.949C26.311 39.6504 26.4243 39.3607 26.555 39.0885C27.0256 38.1315 27.8011 37.4554 28.6899 36.911C28.9949 36.7266 29.3609 36.6125 29.7094 36.551C29.8705 36.5198 30.0493 36.5641 30.2268 36.608C30.299 36.6259 30.3709 36.6437 30.4414 36.6564C30.4266 36.7208 30.4154 36.7888 30.404 36.857C30.3752 37.0306 30.346 37.2064 30.2584 37.3325C29.753 38.0612 29.6049 38.8778 29.5613 39.7382C29.5439 40.1158 29.509 40.5021 29.4393 40.8709ZM27.8272 39.589C27.4438 39.589 27.104 39.9314 27.1127 40.3177C27.1149 40.4173 27.1376 40.5119 27.1765 40.5975C27.1381 40.5124 27.1158 40.4186 27.1136 40.3198C27.1136 39.9335 27.4448 39.5911 27.8282 39.5911C28.1113 39.5911 28.3581 39.7604 28.4701 40.0066C28.3586 39.7593 28.1112 39.589 27.8272 39.589ZM23.5058 11.861C23.8452 11.8893 24.1824 11.9173 24.5179 11.9451L24.5182 11.9452L24.5187 11.9452C25.8457 12.0554 27.1461 12.1633 28.4466 12.2824C28.83 12.3175 28.952 12.1683 28.9869 11.8083C29.0566 11.0356 28.7951 10.4298 28.1503 10.0083C27.0611 9.30592 25.1179 9.42884 24.1245 10.2717C23.6191 10.6932 23.4012 11.2288 23.5058 11.861ZM22.7218 1.75488C23.7675 2.3256 24.7609 2.90509 25.458 3.89726C23.8546 4.84552 22.3036 5.76744 20.7525 6.69815C20.4649 6.24157 20.4301 5.93427 20.6392 5.29331C21.0368 4.05881 21.7895 3.02984 22.5525 1.98667L22.5528 1.98626L22.5531 1.98584L22.5535 1.98533L22.5541 1.98452L22.5542 1.98429L22.5543 1.98426C22.6101 1.90791 22.666 1.83148 22.7218 1.75488ZM20.3517 19.9945C21.4386 20.3668 22.312 21.0397 23.2022 21.7256C23.7395 22.1395 24.2828 22.5581 24.883 22.9183C24.9651 22.7879 25.0469 22.6586 25.1283 22.5301L25.1284 22.53C25.4524 22.0179 25.7686 21.5183 26.0681 21.013C26.1116 20.9427 26.0855 20.7408 26.0158 20.6881C24.883 19.7925 23.663 19.0725 22.1729 19.0023C21.4323 18.9847 20.77 19.1779 20.3517 19.9945ZM28.6389 14.1647C28.6215 14.884 28.6036 15.6207 28.1422 16.226C27.9611 16.166 27.782 16.1053 27.604 16.045C27.1314 15.8849 26.6675 15.7278 26.199 15.5938C25.3712 15.3743 24.5434 15.1724 23.7068 14.988C23.3931 14.9177 23.3234 14.7597 23.367 14.4612C23.4803 13.6358 24.0467 13.1266 25.0052 13.0915C26.2339 13.0388 27.3667 13.4514 28.4734 13.9431C28.5518 13.9783 28.6389 14.0924 28.6389 14.1626L28.6389 14.1647ZM25.0536 41.5064L25.0534 41.5066L25.0531 41.5069L25.0529 41.5072L25.0526 41.5075C24.881 41.7153 24.7232 41.9063 24.5677 42.0999C24.5143 42.1665 24.4586 42.2316 24.4031 42.2966L24.403 42.2967C24.2685 42.4542 24.1348 42.6107 24.0361 42.7847C23.7137 43.3466 23.8706 43.9613 24.4631 44.2159C24.9337 44.4178 25.4565 44.5495 25.9619 44.6022C27.3126 44.7515 28.6458 44.6198 29.9529 44.2247C29.8657 43.6101 29.5869 43.3291 28.9769 43.2676C28.6724 43.2402 28.3646 43.2299 28.0575 43.2197L28.0574 43.2196L28.0572 43.2196L28.057 43.2196C27.8722 43.2134 27.6876 43.2073 27.5043 43.1974C26.3192 43.1271 26.1275 42.9428 25.8922 41.7838C25.8513 41.5895 25.7712 41.3991 25.6861 41.1968L25.6861 41.1968C25.6443 41.0974 25.6013 40.9952 25.5611 40.8882C25.3754 41.1168 25.2093 41.3179 25.0544 41.5053L25.0544 41.5054L25.0536 41.5064ZM26.6601 19.4215C25.2659 18.6927 23.8455 18.0606 22.2683 17.7445C22.4948 16.6206 23.2355 16.1201 24.4032 16.2694C25.5796 16.4099 26.6252 16.9016 27.5838 17.5777C27.6796 17.6479 27.8016 17.8059 27.7755 17.8762C27.5838 18.3679 27.3833 18.8684 27.1306 19.3337C27.0784 19.4215 26.7734 19.483 26.6601 19.4215ZM30.486 39.0281C30.486 39.9412 30.6341 40.0905 31.3313 39.9588C31.6188 39.9061 31.9238 39.7832 32.1591 39.6076C33.0653 38.9315 33.318 37.2984 32.6906 36.394C32.5425 36.1833 32.4118 36.0955 32.1678 36.2711C31.157 37.0174 30.5296 37.9569 30.486 39.0281Z" fill="#20113D"/>
</svg>
